<svg width="200" height="200" viewBox="0 0 200 200" fill="none" xmlns="http://www.w3.org/2000/svg">
<path fill-rule="evenodd" clip-rule="evenodd" d="M17 100.333C17 54.3149 54.3149 17 100.333 17C146.357 17 183.667 54.3121 183.667 100.333C183.667 146.355 146.357 183.667 100.333 183.667C54.3149 183.667 17 146.352 17 100.333ZM171.167 100.333C171.167 61.2155 139.454 29.5 100.333 29.5C61.2184 29.5 29.5 61.2184 29.5 100.333C29.5 139.448 61.2184 171.167 100.333 171.167C139.454 171.167 171.167 139.451 171.167 100.333Z" fill="#87583E"/>
<path d="M125.164 75.8306C127.605 73.3898 131.562 73.3898 134.003 75.8306C136.222 78.0495 136.423 81.5217 134.608 83.9684L134.003 84.6694L94.4527 124.219C92.2342 126.438 88.7626 126.64 86.3159 124.825L85.6148 124.22L65.8315 104.445C63.3902 102.005 63.3894 98.0478 65.8297 95.6065C68.0481 93.3872 71.5202 93.1847 73.9674 94.9996L74.6685 95.6047L90.0258 110.957L125.164 75.8306Z" fill="#87583E"/>
</svg>
